<?xml version="1.0" encoding="utf-8"?>
<!-- Generator: Adobe Illustrator 27.4.0, SVG Export Plug-In . SVG Version: 6.00 Build 0)  -->
<svg version="1.1" id="Layer_1" xmlns="http://www.w3.org/2000/svg" xmlns:xlink="http://www.w3.org/1999/xlink" x="0px" y="0px"
	 viewBox="0 0 512 512" style="enable-background:new 0 0 512 512;" xml:space="preserve">
<path d="M416,336H224c-8.8,0-16-7.2-16-16V64c0-8.8,7.2-16,16-16h140.1l67.9,67.9V320C432,328.8,424.8,336,416,336z M224,384h192
	c35.3,0,64-28.7,64-64V115.9c0-12.7-5.1-24.9-14.1-33.9l-67.8-67.9c-9-9-21.2-14.1-33.9-14.1H224c-35.3,0-64,28.7-64,64v256
	C160,355.3,188.7,384,224,384z M96,128c-35.3,0-64,28.7-64,64v256c0,35.3,28.7,64,64,64h192c35.3,0,64-28.7,64-64v-32h-48v32
	c0,8.8-7.2,16-16,16H96c-8.8,0-16-7.2-16-16V192c0-8.8,7.2-16,16-16h32v-48H96z"/>
</svg>
